<?xml version="1.0" encoding="UTF-8" standalone="no"?>
<!-- Generator: Adobe Illustrator 15.0.0, SVG Export Plug-In . SVG Version: 6.00 Build 0)  -->
<svg id="svg2" xmlns:rdf="http://www.w3.org/1999/02/22-rdf-syntax-ns#" xmlns="http://www.w3.org/2000/svg" enable-background="new 0 0 30 30" xml:space="preserve" height="30px" width="30px" version="1.1" y="0px" x="0px" xmlns:cc="http://creativecommons.org/ns#" xmlns:dc="http://purl.org/dc/elements/1.1/" viewBox="0 0 30 30"><metadata id="metadata19"><rdf:RDF><cc:Work rdf:about=""><dc:format>image/svg+xml</dc:format><dc:type rdf:resource="http://purl.org/dc/dcmitype/StillImage"/><dc:title/></cc:Work></rdf:RDF></metadata>
<g id="DO_NOT_EDIT_-_BOUNDING_BOX">
	<rect id="BOUNDING_BOX" width="30" height="30" fill="none"/>
</g>
<g id="PLACE_YOUR_GRAPHIC_HERE">
	<path id="path7" opacity="0.3" d="M27,5h-24c-0.551,0-1,0.451-1,1v16c0,0.551,0.449,1,1,1h24c0.549,0,1-0.449,1-1v-16c0-0.549-0.451-1-1-1zm-5.5,1h2v2h-2v-2zm-3,0h2v2h-2v-2zm-3,0h2v2h-2v-2zm-6,0h2v2h-2v-2zm-3,0h2v2h-2v-2zm-3,0h2v2h-2v-2zm0,3h10.5v10h-10.5v-10zm2,13h-2v-2h2v2zm3,0h-2v-2h2v2zm3,0h-2v-2h2v2zm3,0h-2v-2h2v2zm0-14h-2v-2h2v2zm3,14h-2v-2h2v2zm3,0h-2v-2h2v2zm3,0h-2v-2h2v2zm3,0h-2v-2h2v2zm0-3h-10.5v-10h10.5v10zm0-11h-2v-2h2v2z"/>
	<path id="path9" opacity="0.15" d="M3,25c-1.103,0-2-0.897-2-2v-16c0-1.103,0.897-2,2-2h24c1.103,0,2,0.897,2,2v16c0,1.103-0.897,2-2,2h-24z"/>
	<path id="path11" opacity="0.15" d="M27,6h-24c-0.551,0-1,0.451-1,1v16c0,0.551,0.449,1,1,1h24c0.549,0,1-0.449,1-1v-16c0-0.549-0.451-1-1-1zm-5.5,1h2v2h-2v-2zm-3,0h2v2h-2v-2zm-3,0h2v2h-2v-2zm-6,0h2v2h-2v-2zm-3,0h2v2h-2v-2zm-3,0h2v2h-2v-2zm0,3h10.5v10h-10.5v-10zm2,13h-2v-2h2v2zm3,0h-2v-2h2v2zm3,0h-2v-2h2v2zm3,0h-2v-2h2v2zm0-14h-2v-2h2v2zm3,14h-2v-2h2v2zm3,0h-2v-2h2v2zm3,0h-2v-2h2v2zm3,0h-2v-2h2v2zm0-3h-10.5v-10h10.5v10zm0-11h-2v-2h2v2z"/>
	<path id="path13" d="M27,6h-24c-0.551,0-1,0.451-1,1v16c0,0.551,0.449,1,1,1h24c0.549,0,1-0.449,1-1v-16c0-0.549-0.451-1-1-1zm-5.5,1h2v2h-2v-2zm-3,0h2v2h-2v-2zm-3,0h2v2h-2v-2zm-6,0h2v2h-2v-2zm-3,0h2v2h-2v-2zm-3,0h2v2h-2v-2zm0,3h10.5v10h-10.5v-10zm2,13h-2v-2h2v2zm3,0h-2v-2h2v2zm3,0h-2v-2h2v2zm3,0h-2v-2h2v2zm0-14h-2v-2h2v2zm3,14h-2v-2h2v2zm3,0h-2v-2h2v2zm3,0h-2v-2h2v2zm3,0h-2v-2h2v2zm0-3h-10.5v-10h10.5v10zm0-11h-2v-2h2v2z" fill="#FFF"/>
</g>
<path id="path19" fill="#ea2227" d="m28.013,0.719c-0.25575,0-0.52325,0.117-0.71875,0.3125l-26,26c-0.392,0.391-0.392,1.0152,0,1.4062,0.194,0.195,0.46275,0.28125,0.71875,0.28125s0.52375-0.08625,0.71875-0.28125l26-26c0.391-0.391,0.391-1.0152,0-1.4062-0.1955-0.1955-0.463-0.3125-0.71875-0.3125z"/></svg>
